# xmcd
# 
# Track frame offsets:
#     150
#     17195
#     35086
#     52490
#     74150
#     91497
#     104693
#     122468
#     146462
#     166552
#     178124
#     198017
# 
# Disc length: 2759
# 
# Revision: 1
# Processed by: cddbd v1.5.2PL0 Copyright (c) Steve Scherf et al.
# Submitted via: fre:ac v1.0.17
# 
DISCID=af0ac50c
DTITLE=Haley Dykes - The Mystery of Her
DYEAR=2005
DGENRE=Folk
TTITLE0=Here in the Middle
TTITLE1=Maybe Just a Little
TTITLE2=Forever and Always
TTITLE3=Life
TTITLE4=The Mystery of Her
TTITLE5=Temporary One
TTITLE6=As We're Reminded
TTITLE7=It's All For Him
TTITLE8=She's Drifting Away
TTITLE9=Baby What You Do To Me
TTITLE10=A Prayer for Grace
TTITLE11=Song for a Soldier
EXTD=
EXTT0=
EXTT1=
EXTT2=
EXTT3=
EXTT4=
EXTT5=
EXTT6=
EXTT7=
EXTT8=
EXTT9=
EXTT10=
EXTT11=
PLAYORDER=
